<?xml version="1.0" standalone="no"?>
<!DOCTYPE svg PUBLIC "-//W3C//DTD SVG 20010904//EN"
 "http://www.w3.org/TR/2001/REC-SVG-20010904/DTD/svg10.dtd">
<svg version="1.0" xmlns="http://www.w3.org/2000/svg"
 width="512.000000pt" height="512.000000pt" viewBox="0 0 512.000000 512.000000"
 preserveAspectRatio="xMidYMid meet">

<g transform="translate(0.000000,512.000000) scale(0.100000,-0.100000)"
fill="#A3B3BC" stroke="none">
<path d="M780 4467 c-48 -15 -113 -83 -128 -133 -9 -32 -12 -390 -12 -1573 0
-1358 2 -1541 16 -1608 41 -199 166 -360 349 -448 140 -68 80 -65 1555 -65
1475 0 1415 -3 1555 65 183 88 308 249 349 448 14 64 16 166 16 654 l0 578
-24 50 c-28 60 -46 77 -111 106 -78 35 -164 17 -229 -48 -62 -61 -61 -41 -66
-695 l-5 -596 -30 -43 c-16 -23 -50 -53 -74 -66 l-45 -23 -1347 2 -1347 3 -43
30 c-23 17 -53 50 -66 74 l-23 44 0 1384 0 1385 29 29 29 29 609 0 c380 0 625
4 653 11 196 45 229 301 51 392 l-55 27 -785 -1 c-546 -1 -797 -4 -821 -12z"/>
<path d="M3125 4464 c-108 -40 -165 -173 -120 -281 10 -23 86 -107 194 -217
179 -181 200 -210 186 -258 -4 -13 -373 -390 -820 -838 -550 -551 -820 -829
-834 -857 -68 -137 35 -304 188 -303 97 1 84 -11 951 855 540 539 824 816 842
820 15 4 37 4 50 0 13 -4 104 -88 204 -186 109 -108 194 -184 217 -194 78 -32
181 -10 239 51 58 62 58 64 58 683 l0 566 -24 50 c-27 59 -46 77 -106 104 -44
20 -63 21 -615 20 -473 0 -577 -3 -610 -15z"/>
</g>
</svg>
